# xmcd
#
# Track frame offsets: 
#        150
#        29212
#        48590
#        70557
#        94120
#        131307
#
# Disc length: 1961 seconds
#
# Revision: 3
# Processed by: cddbd v1.5.2PL0 Copyright (c) Steve Scherf et al.
# Submitted via: ExactAudioCopyFreeDBPlugin 1.0
#
DISCID=4d07a706
DTITLE=The Roots - From The Ground Up (EP)
DYEAR=1994
DGENRE=Hip-Hop
TTITLE0=It's Comin'
TTITLE1=Distortion To Static
TTITLE2=Mellow My Man
TTITLE3=Dat Scat
TTITLE4=Worldwide (London Groove)
TTITLE5=Do You Want More?!
EXTD=
EXTT0=
EXTT1=
EXTT2=
EXTT3=
EXTT4=
EXTT5=
PLAYORDER=
